<svg width="203" height="66" viewBox="0 0 203 66" fill="none" xmlns="http://www.w3.org/2000/svg">
<g filter="url(#filter0_dd)">
<rect x="8" y="4" width="50" height="50" rx="8" fill="white"/>
</g>
<path d="M30.392 36.172L30.952 39H18.38V19.96H21.992V36.172H30.392Z" fill="black"/>
<path d="M41.604 39H34.38V19.96H41.604C43.5827 19.96 45.216 20.3707 46.504 21.192C47.8107 21.9947 48.7813 23.1053 49.416 24.524C50.0507 25.924 50.368 27.5387 50.368 29.368C50.368 32.3547 49.612 34.6973 48.1 36.396C46.588 38.0947 44.4227 38.9627 41.604 39ZM41.744 23.04H37.992V35.948H41.548C43.0787 35.948 44.3013 35.444 45.216 34.436C46.1493 33.428 46.616 31.7387 46.616 29.368C46.616 27.3893 46.224 25.84 45.44 24.72C44.656 23.6 43.424 23.04 41.744 23.04Z" fill="black"/>
<path d="M69.2372 41H81.5369V38.3551H72.3097V20.6364H69.2372V41ZM91.3857 41.3082C94.7166 41.3082 97.0732 39.6676 97.7493 37.1818L94.9354 36.6747C94.3984 38.1165 93.1058 38.8523 91.4155 38.8523C88.87 38.8523 87.1598 37.2017 87.0803 34.2585H97.9382V33.2045C97.9382 27.6861 94.6371 25.5284 91.1768 25.5284C86.9212 25.5284 84.1172 28.7699 84.1172 33.4631C84.1172 38.206 86.8814 41.3082 91.3857 41.3082ZM87.0902 32.0312C87.2095 29.8636 88.7805 27.9844 91.1967 27.9844C93.5036 27.9844 95.0149 29.6946 95.0249 32.0312H87.0902ZM105.681 41.3381C108.207 41.3381 109.629 40.0554 110.196 38.9119H110.315V41H113.218V30.858C113.218 26.4134 109.718 25.5284 107.292 25.5284C104.528 25.5284 101.983 26.642 100.988 29.4261L103.782 30.0625C104.22 28.9787 105.333 27.9347 107.332 27.9347C109.251 27.9347 110.235 28.9389 110.235 30.669V30.7386C110.235 31.8224 109.122 31.8026 106.377 32.1207C103.484 32.4588 100.521 33.2145 100.521 36.6847C100.521 39.6875 102.778 41.3381 105.681 41.3381ZM106.328 38.9517C104.647 38.9517 103.434 38.196 103.434 36.7244C103.434 35.1335 104.846 34.5668 106.566 34.3381C107.531 34.2088 109.818 33.9503 110.245 33.5227V35.4915C110.245 37.3011 108.804 38.9517 106.328 38.9517ZM117.178 41H120.151V31.6733C120.151 29.6747 121.692 28.233 123.8 28.233C124.417 28.233 125.113 28.3423 125.352 28.4119V25.5682C125.053 25.5284 124.467 25.4986 124.089 25.4986C122.299 25.4986 120.768 26.5128 120.211 28.1534H120.052V25.7273H117.178V41ZM130.897 31.9318C130.897 29.4957 132.389 28.1037 134.457 28.1037C136.475 28.1037 137.699 29.4261 137.699 31.6435V41H140.672V31.2855C140.672 27.5071 138.593 25.5284 135.471 25.5284C133.174 25.5284 131.673 26.5923 130.967 28.2131H130.778V25.7273H127.924V41H130.897V31.9318ZM158.9 41C165.104 41 168.694 37.152 168.694 30.7884C168.694 24.4545 165.104 20.6364 159.109 20.6364H152.308V41H158.9ZM155.38 38.3153V23.321H158.92C163.374 23.321 165.671 25.9858 165.671 30.7884C165.671 35.6108 163.374 38.3153 158.731 38.3153H155.38ZM178.858 41.3082C182.189 41.3082 184.546 39.6676 185.222 37.1818L182.408 36.6747C181.871 38.1165 180.578 38.8523 178.888 38.8523C176.343 38.8523 174.632 37.2017 174.553 34.2585H185.411V33.2045C185.411 27.6861 182.11 25.5284 178.65 25.5284C174.394 25.5284 171.59 28.7699 171.59 33.4631C171.59 38.206 174.354 41.3082 178.858 41.3082ZM174.563 32.0312C174.682 29.8636 176.253 27.9844 178.669 27.9844C180.976 27.9844 182.488 29.6946 182.498 32.0312H174.563ZM201.31 25.7273H198.118L194.26 37.4801H194.101L190.233 25.7273H187.042L192.59 41H195.772L201.31 25.7273Z" fill="#555770"/>
<defs>
<filter id="filter0_dd" x="0" y="0" width="66" height="66" filterUnits="userSpaceOnUse" color-interpolation-filters="sRGB">
<feFlood flood-opacity="0" result="BackgroundImageFix"/>
<feColorMatrix in="SourceAlpha" type="matrix" values="0 0 0 0 0 0 0 0 0 0 0 0 0 0 0 0 0 0 127 0"/>
<feOffset dy="4"/>
<feGaussianBlur stdDeviation="4"/>
<feColorMatrix type="matrix" values="0 0 0 0 0.376471 0 0 0 0 0.380392 0 0 0 0 0.439216 0 0 0 0.16 0"/>
<feBlend mode="normal" in2="BackgroundImageFix" result="effect1_dropShadow"/>
<feColorMatrix in="SourceAlpha" type="matrix" values="0 0 0 0 0 0 0 0 0 0 0 0 0 0 0 0 0 0 127 0"/>
<feOffset/>
<feGaussianBlur stdDeviation="1"/>
<feColorMatrix type="matrix" values="0 0 0 0 0.156863 0 0 0 0 0.160784 0 0 0 0 0.239216 0 0 0 0.04 0"/>
<feBlend mode="normal" in2="effect1_dropShadow" result="effect2_dropShadow"/>
<feBlend mode="normal" in="SourceGraphic" in2="effect2_dropShadow" result="shape"/>
</filter>
</defs>
</svg>
